<?xml version="1.0" encoding="UTF-8"?>
<!-- Created with Inkscape (http://www.inkscape.org/) -->
<svg width="135.47mm" height="135.47mm" version="1.1" viewBox="0 0 135.47 135.47" xmlns="http://www.w3.org/2000/svg">
 <g transform="translate(-34.816 -83.725)">
  <g transform="matrix(.26458 0 0 .26458 34.816 83.725)">
   <g>
    <circle cx="256" cy="256" r="256" fill="#90caf9"/>
    <path d="m321.06 134.44-0.73-0.732c-1.06-0.947-2.452-1.495-3.988-1.495h-69.517l-4.756-4.754c-0.131-0.156-0.307-0.302-0.453-0.453-0.253-0.287-0.532-0.55-0.814-0.814-0.084-0.074-0.148-0.159-0.233-0.236-0.056-0.049-0.123-0.084-0.182-0.133-0.435-0.379-0.891-0.724-1.377-1.039-0.212-0.148-0.422-0.284-0.64-0.415-0.407-0.238-0.837-0.443-1.27-0.637-0.284-0.131-0.566-0.269-0.863-0.374-0.445-0.161-0.906-0.282-1.364-0.394-0.294-0.074-0.581-0.169-0.883-0.225-0.773-0.136-1.569-0.218-2.381-0.218-6.108 0-11.3 4.096-12.913 9.692h-71.823c-3.4 0-6.216 2.813-6.216 6.216v244.84c0 1.498 0.548 2.888 1.462 3.948l124.51 124.51c115.35-4.721 210.98-85.724 237.81-193.93z" fill="#90caf9"/>
    <path d="m146.89 132.23c-3.42 0-6.218 2.796-6.218 6.218v244.82c0 3.42 2.798 6.218 6.218 6.218h169.46c3.418 0 6.223-2.798 6.223-6.218v-244.82c0-3.423-2.806-6.218-6.223-6.218z" fill="#1976d2"/>
   </g>
   <polygon points="282.38 371.9 153.1 371.9 153.1 149.8 310.14 149.8 310.14 344.15" fill="#fff"/>
   <polygon points="310.14 344.15 282.38 371.9 282.38 344.15" fill="#bbdefb"/>
   <path d="m245.07 135.99c0-7.437-6.019-13.478-13.45-13.478-7.429 0-13.455 6.039-13.455 13.478h-17.032v27.622h60.974v-27.622zm-13.447-4.578c2.516 0 4.58 2.051 4.58 4.58 0 2.516-2.061 4.554-4.58 4.554-2.534 0-4.58-2.038-4.58-4.554 0-2.529 2.043-4.58 4.58-4.58z" fill="#5d6d7e"/>
   <path d="m245.07 135.99c0-7.437-6.019-13.478-13.45-13.478-7.429 0-13.455 6.039-13.455 13.478h-17.032v13.811h60.974v-13.811zm-13.447-4.578c2.516 0 4.58 2.051 4.58 4.58 0 2.516-2.061 4.554-4.58 4.554-2.534 0-4.58-2.038-4.58-4.554 0-2.529 2.043-4.58 4.58-4.58z" fill="#34495e"/>
   <rect x="201.14" y="146.92" width="60.974" height="2.883" fill="#5d6d7e"/>
   <rect x="201.14" y="149.81" width="60.974" height="2.883" fill="#34495e"/>
   <g fill="#bbdefb" stroke-width="1.0016">
    <rect x="212.99" y="193.43" width="73.157" height="5.737"/>
    <rect x="212.99" y="223.44" width="73.157" height="5.737"/>
    <rect x="212.99" y="253.41" width="73.157" height="5.737"/>
    <rect x="212.99" y="283.39" width="73.157" height="5.737"/>
   </g>
   <g fill="#ff8e31">
    <polygon points="187.36 199.17 177.09 188.89 179.34 186.64 187.36 194.66 200.24 181.78 202.5 184.03"/>
    <polygon points="187.36 229.16 177.09 218.88 179.34 216.63 187.36 224.66 200.24 211.78 202.5 214.02"/>
    <polygon points="187.36 259.15 177.09 248.88 179.34 246.62 187.36 254.65 200.24 241.77 202.5 244.02"/>
    <polygon points="187.36 289.15 177.09 278.88 179.34 276.62 187.36 284.65 200.24 271.76 202.5 274.02"/>
   </g>
   <polygon points="371.34 362.98 344.83 362.98 358.08 389.48" fill="#fff"/>
   <rect x="344.83" y="226.48" width="26.506" height="136.5" fill="#ff9d4d"/>
   <g fill="#f28124">
    <rect x="344.83" y="226.48" width="6.63" height="136.5"/>
    <rect x="364.7" y="226.48" width="6.628" height="136.5"/>
   </g>
   <g fill="#e1effa">
    <polygon points="358.08 389.48 344.83 362.98 351.46 362.98"/>
    <polygon points="358.08 389.48 371.34 362.98 364.71 362.98"/>
   </g>
   <polygon points="363.27 379.11 352.89 379.1 358.08 389.48" fill="#5d6d7e"/>
   <g fill="#34495e">
    <polygon points="355.48 379.1 352.89 379.1 358.08 389.48"/>
    <polygon points="363.27 379.11 360.68 379.1 358.08 389.48"/>
   </g>
   <rect x="344.83" y="222.05" width="26.506" height="4.421" fill="#fff"/>
   <g fill="#e1effa">
    <rect x="344.83" y="222.05" width="6.625" height="4.421"/>
    <rect x="364.7" y="222.05" width="6.63" height="4.421"/>
   </g>
   <path d="m358.08 208.81c-7.316 0-13.253 5.937-13.253 13.253h26.506c3e-3 -7.314-5.939-13.253-13.253-13.253z" fill="#34495e"/>
   <path d="m349.98 219.99c-0.325 0-0.648-0.072-0.945-0.228-1.021-0.525-1.423-1.774-0.901-2.788 1.928-3.753 5.737-6.088 9.948-6.088 1.144 0 2.074 0.927 2.074 2.076 0 1.144-0.927 2.074-2.074 2.074-2.647 0-5.048 1.467-6.257 3.835-0.371 0.71-1.095 1.119-1.845 1.119z" fill="#5e7e99"/>
  </g>
 </g>
</svg>
